{
    "asset" : {
        "generator" : "Khronos glTF Blender I/O v3.2.43",
        "version" : "2.0"
    },
    "scene" : 0,
    "scenes" : [
        {
            "name" : "Scene",
            "nodes" : [
                0
            ]
        }
    ],
    "nodes" : [
        {
            "mesh" : 0,
            "name" : "helmet",
            "translation" : [
                0.005937268491834402,
                0.10110851377248764,
                -0.03411197289824486
            ]
        }
    ],
    "materials" : [
        {
            "doubleSided" : true,
            "name" : "Material.003",
            "pbrMetallicRoughness" : {
                "baseColorTexture" : {
                    "index" : 0
                },
                "metallicFactor" : 0,
                "roughnessFactor" : 0.5
            }
        }
    ],
    "meshes" : [
        {
            "name" : "Cube",
            "primitives" : [
                {
                    "attributes" : {
                        "POSITION" : 0,
                        "NORMAL" : 1,
                        "TEXCOORD_0" : 2
                    },
                    "indices" : 3,
                    "material" : 0
                }
            ]
        }
    ],
    "textures" : [
        {
            "sampler" : 0,
            "source" : 0
        }
    ],
    "images" : [
        {
            "bufferView" : 4,
            "mimeType" : "image/png",
            "name" : "casco"
        }
    ],
    "accessors" : [
        {
            "bufferView" : 0,
            "componentType" : 5126,
            "count" : 113,
            "max" : [
                0.6888111233711243,
                0.7626155018806458,
                1.1626825332641602
            ],
            "min" : [
                -0.699080228805542,
                -0.8225489258766174,
                -0.8776828050613403
            ],
            "type" : "VEC3"
        },
        {
            "bufferView" : 1,
            "componentType" : 5126,
            "count" : 113,
            "type" : "VEC3"
        },
        {
            "bufferView" : 2,
            "componentType" : 5126,
            "count" : 113,
            "type" : "VEC2"
        },
        {
            "bufferView" : 3,
            "componentType" : 5123,
            "count" : 342,
            "type" : "SCALAR"
        }
    ],
    "bufferViews" : [
        {
            "buffer" : 0,
            "byteLength" : 1356,
            "byteOffset" : 0
        },
        {
            "buffer" : 0,
            "byteLength" : 1356,
            "byteOffset" : 1356
        },
        {
            "buffer" : 0,
            "byteLength" : 904,
            "byteOffset" : 2712
        },
        {
            "buffer" : 0,
            "byteLength" : 684,
            "byteOffset" : 3616
        },
        {
            "buffer" : 0,
            "byteLength" : 42463,
            "byteOffset" : 4300
        }
    ],
    "samplers" : [
        {
            "magFilter" : 9728,
            "minFilter" : 9984
        }
    ],
    "buffers" : [
        {
            "byteLength" : 46764,
            "uri" : "data:application/octet-stream;base64,"
        }
    ]
}
